# xmcd
#
# Track frame offsets:
# 150
# 14066
# 29516
# 43372
# 57001
# 72847
# 88665
# 104762
# 119936
# 131836
# 144752
# 160743
# 172728
# 186497
# 199456
# 215314
# 232651
# 247513
# 260886
# 275867
# 291173
#
# Disc length: 4057 seconds
#
#
# Revision: 1
# Processed by: cddbd v1.5.1PL2 Copyright (c) Steve Scherf et al.
# Submitted via: FreeRIP 2.945 
#
DISCID=480fd715
DTITLE=Fernando Mendes - Serie Luxo Exclusivo
DYEAR=1990
DGENRE=Bolero
TTITLE0=O por do sol
TTITLE1=Eu queria dizer q te amo numa cancao
TTITLE2=Menina
TTITLE3=Meu amigo do mar
TTITLE4=Acorda menino
TTITLE5=Sorte tem quem acredita nela
TTITLE6=Menina do suburbio
TTITLE7=Menina da calcada
TTITLE8=Caminho incerto
TTITLE9=Menina da janela
TTITLE10=Filho por acaso
TTITLE11=Deusa do amor
TTITLE12=O preco da ilusao
TTITLE13=Tainan
TTITLE14=Eu soh queria um amor de verdade
TTITLE15=Voce nao me ensinou a te esquecer
TTITLE16=Menina dos olhos d agua
TTITLE17=A mendiga
TTITLE18=A desconhecida
TTITLE19=Recordacoes
TTITLE20=Coisas estranhas
EXTD=YEAR: 1990
EXTT0=
EXTT1=
EXTT2=
EXTT3=
EXTT4=
EXTT5=
EXTT6=
EXTT7=
EXTT8=
EXTT9=
EXTT10=
EXTT11=
EXTT12=
EXTT13=
EXTT14=
EXTT15=
EXTT16=
EXTT17=
EXTT18=
EXTT19=
EXTT20=
PLAYORDER=
